<mxfile host="app.diagrams.net" modified="2021-10-11T19:11:50.171Z" agent="5.0 (Windows NT 10.0; Win64; x64) AppleWebKit/537.36 (KHTML, like Gecko) Chrome/94.0.4606.61 Safari/537.36" etag="qNUoZAzJ_E1dekPu5fLa" version="15.4.3" type="github" pages="10">
  <diagram id="fjc7ldtTmQNcsNeStD3s" name="Register">
    <mxGraphModel dx="1422" dy="794" grid="1" gridSize="10" guides="1" tooltips="1" connect="1" arrows="1" fold="1" page="1" pageScale="1" pageWidth="850" pageHeight="1100" math="0" shadow="0">
      <root>
        <mxCell id="0" />
        <mxCell id="1" parent="0" />
        <mxCell id="t-iV4YfEtaA4Sik8pjtC-8" style="edgeStyle=none;rounded=0;orthogonalLoop=1;jettySize=auto;html=1;exitX=1;exitY=0.3333333333333333;exitDx=0;exitDy=0;exitPerimeter=0;" parent="1" source="yaiqaI036aTxPu-Qpi3E-1" target="yaiqaI036aTxPu-Qpi3E-2" edge="1">
          <mxGeometry relative="1" as="geometry" />
        </mxCell>
        <mxCell id="yaiqaI036aTxPu-Qpi3E-1" value="New User" style="shape=umlActor;verticalLabelPosition=bottom;verticalAlign=top;html=1;" parent="1" vertex="1">
          <mxGeometry x="80" y="190" width="30" height="60" as="geometry" />
        </mxCell>
        <mxCell id="t-iV4YfEtaA4Sik8pjtC-2" style="edgeStyle=orthogonalEdgeStyle;rounded=0;orthogonalLoop=1;jettySize=auto;html=1;" parent="1" source="yaiqaI036aTxPu-Qpi3E-2" target="yaiqaI036aTxPu-Qpi3E-3" edge="1">
          <mxGeometry relative="1" as="geometry" />
        </mxCell>
        <mxCell id="yaiqaI036aTxPu-Qpi3E-2" value="RegisterFrom" style="shape=umlBoundary;whiteSpace=wrap;html=1;" parent="1" vertex="1">
          <mxGeometry x="210" y="170" width="100" height="80" as="geometry" />
        </mxCell>
        <mxCell id="t-iV4YfEtaA4Sik8pjtC-3" style="rounded=0;orthogonalLoop=1;jettySize=auto;html=1;" parent="1" source="yaiqaI036aTxPu-Qpi3E-3" target="yaiqaI036aTxPu-Qpi3E-4" edge="1">
          <mxGeometry relative="1" as="geometry" />
        </mxCell>
        <mxCell id="t-iV4YfEtaA4Sik8pjtC-4" style="edgeStyle=none;rounded=0;orthogonalLoop=1;jettySize=auto;html=1;entryX=0.5;entryY=0;entryDx=0;entryDy=0;" parent="1" source="yaiqaI036aTxPu-Qpi3E-3" target="4sZlPSB1H0fjpFjgmcHc-1" edge="1">
          <mxGeometry relative="1" as="geometry" />
        </mxCell>
        <mxCell id="t-iV4YfEtaA4Sik8pjtC-5" style="edgeStyle=none;rounded=0;orthogonalLoop=1;jettySize=auto;html=1;entryX=0.5;entryY=0;entryDx=0;entryDy=0;" parent="1" source="yaiqaI036aTxPu-Qpi3E-3" target="4sZlPSB1H0fjpFjgmcHc-3" edge="1">
          <mxGeometry relative="1" as="geometry" />
        </mxCell>
        <mxCell id="t-iV4YfEtaA4Sik8pjtC-6" style="edgeStyle=none;rounded=0;orthogonalLoop=1;jettySize=auto;html=1;entryX=0.5;entryY=0;entryDx=0;entryDy=0;" parent="1" source="yaiqaI036aTxPu-Qpi3E-3" target="4sZlPSB1H0fjpFjgmcHc-2" edge="1">
          <mxGeometry relative="1" as="geometry" />
        </mxCell>
        <mxCell id="3xtdcWuOzk8aWKBVNUWb-5" style="edgeStyle=none;rounded=0;orthogonalLoop=1;jettySize=auto;html=1;entryX=-0.006;entryY=0.505;entryDx=0;entryDy=0;entryPerimeter=0;" parent="1" source="yaiqaI036aTxPu-Qpi3E-3" target="3xtdcWuOzk8aWKBVNUWb-2" edge="1">
          <mxGeometry relative="1" as="geometry">
            <mxPoint x="537" y="209" as="targetPoint" />
          </mxGeometry>
        </mxCell>
        <mxCell id="yaiqaI036aTxPu-Qpi3E-3" value="Register&lt;br&gt;Controller" style="ellipse;shape=umlControl;whiteSpace=wrap;html=1;" parent="1" vertex="1">
          <mxGeometry x="400" y="170" width="70" height="80" as="geometry" />
        </mxCell>
        <mxCell id="yaiqaI036aTxPu-Qpi3E-4" value="User name" style="ellipse;shape=umlEntity;whiteSpace=wrap;html=1;" parent="1" vertex="1">
          <mxGeometry x="190" y="350" width="80" height="80" as="geometry" />
        </mxCell>
        <mxCell id="jUaBnFoViU3fji7P434Q-1" value="&lt;b&gt;&lt;font style=&quot;font-size: 18px&quot;&gt;Collaboration Diagram: Register&lt;/font&gt;&lt;/b&gt;" style="text;html=1;strokeColor=none;fillColor=none;align=center;verticalAlign=middle;whiteSpace=wrap;rounded=0;" parent="1" vertex="1">
          <mxGeometry x="20" y="100" width="320" height="20" as="geometry" />
        </mxCell>
        <mxCell id="4sZlPSB1H0fjpFjgmcHc-1" value="Password" style="ellipse;shape=umlEntity;whiteSpace=wrap;html=1;" parent="1" vertex="1">
          <mxGeometry x="340" y="350" width="80" height="80" as="geometry" />
        </mxCell>
        <mxCell id="4sZlPSB1H0fjpFjgmcHc-2" value="Birth date" style="ellipse;shape=umlEntity;whiteSpace=wrap;html=1;" parent="1" vertex="1">
          <mxGeometry x="600" y="350" width="80" height="80" as="geometry" />
        </mxCell>
        <mxCell id="4sZlPSB1H0fjpFjgmcHc-3" value="name" style="ellipse;shape=umlEntity;whiteSpace=wrap;html=1;" parent="1" vertex="1">
          <mxGeometry x="460" y="350" width="80" height="80" as="geometry" />
        </mxCell>
        <mxCell id="3xtdcWuOzk8aWKBVNUWb-6" style="edgeStyle=none;rounded=0;orthogonalLoop=1;jettySize=auto;html=1;entryX=0;entryY=0.3333333333333333;entryDx=0;entryDy=0;entryPerimeter=0;" parent="1" source="3xtdcWuOzk8aWKBVNUWb-2" target="3xtdcWuOzk8aWKBVNUWb-3" edge="1">
          <mxGeometry relative="1" as="geometry" />
        </mxCell>
        <mxCell id="3xtdcWuOzk8aWKBVNUWb-2" value="Data Storage" style="shape=umlBoundary;whiteSpace=wrap;html=1;" parent="1" vertex="1">
          <mxGeometry x="540" y="170" width="100" height="80" as="geometry" />
        </mxCell>
        <mxCell id="3xtdcWuOzk8aWKBVNUWb-3" value="&lt;span&gt;User Data CSV&amp;nbsp;&lt;/span&gt;" style="shape=umlActor;verticalLabelPosition=bottom;verticalAlign=top;html=1;" parent="1" vertex="1">
          <mxGeometry x="710" y="190" width="30" height="60" as="geometry" />
        </mxCell>
      </root>
    </mxGraphModel>
  </diagram>
  <diagram id="2xKnuyxjkbW83Z2QAkzn" name="Login">
    <mxGraphModel dx="1422" dy="794" grid="1" gridSize="10" guides="1" tooltips="1" connect="1" arrows="1" fold="1" page="1" pageScale="1" pageWidth="827" pageHeight="1169" math="0" shadow="0">
      <root>
        <mxCell id="eyI3bxU38TPREhqzsuBK-0" />
        <mxCell id="eyI3bxU38TPREhqzsuBK-1" parent="eyI3bxU38TPREhqzsuBK-0" />
        <mxCell id="ZtnMm-Qtx_jKj9Opeqn2-1" style="edgeStyle=none;rounded=0;orthogonalLoop=1;jettySize=auto;html=1;exitX=1;exitY=0.3333333333333333;exitDx=0;exitDy=0;exitPerimeter=0;entryX=0;entryY=0.5;entryDx=0;entryDy=0;entryPerimeter=0;" parent="eyI3bxU38TPREhqzsuBK-1" source="eyI3bxU38TPREhqzsuBK-2" target="eyI3bxU38TPREhqzsuBK-3" edge="1">
          <mxGeometry relative="1" as="geometry" />
        </mxCell>
        <mxCell id="eyI3bxU38TPREhqzsuBK-2" value="Actor" style="shape=umlActor;verticalLabelPosition=bottom;verticalAlign=top;html=1;" parent="eyI3bxU38TPREhqzsuBK-1" vertex="1">
          <mxGeometry x="70" y="180" width="30" height="60" as="geometry" />
        </mxCell>
        <mxCell id="ZtnMm-Qtx_jKj9Opeqn2-2" style="edgeStyle=none;rounded=0;orthogonalLoop=1;jettySize=auto;html=1;" parent="eyI3bxU38TPREhqzsuBK-1" source="eyI3bxU38TPREhqzsuBK-3" edge="1">
          <mxGeometry relative="1" as="geometry">
            <mxPoint x="380" y="200" as="targetPoint" />
          </mxGeometry>
        </mxCell>
        <mxCell id="eyI3bxU38TPREhqzsuBK-3" value="Login&lt;br&gt;from" style="shape=umlBoundary;whiteSpace=wrap;html=1;" parent="eyI3bxU38TPREhqzsuBK-1" vertex="1">
          <mxGeometry x="160" y="160" width="100" height="80" as="geometry" />
        </mxCell>
        <mxCell id="ZtnMm-Qtx_jKj9Opeqn2-4" style="edgeStyle=none;rounded=0;orthogonalLoop=1;jettySize=auto;html=1;entryX=0.75;entryY=0;entryDx=0;entryDy=0;entryPerimeter=0;" parent="eyI3bxU38TPREhqzsuBK-1" source="eyI3bxU38TPREhqzsuBK-4" target="eyI3bxU38TPREhqzsuBK-5" edge="1">
          <mxGeometry relative="1" as="geometry" />
        </mxCell>
        <mxCell id="ZtnMm-Qtx_jKj9Opeqn2-5" style="edgeStyle=none;rounded=0;orthogonalLoop=1;jettySize=auto;html=1;entryX=0.5;entryY=0;entryDx=0;entryDy=0;" parent="eyI3bxU38TPREhqzsuBK-1" source="eyI3bxU38TPREhqzsuBK-4" target="ZtnMm-Qtx_jKj9Opeqn2-0" edge="1">
          <mxGeometry relative="1" as="geometry" />
        </mxCell>
        <mxCell id="-JO1Y7YxCn3ttJPdonMD-1" style="rounded=0;orthogonalLoop=1;jettySize=auto;html=1;entryX=0.04;entryY=0.5;entryDx=0;entryDy=0;entryPerimeter=0;" parent="eyI3bxU38TPREhqzsuBK-1" source="eyI3bxU38TPREhqzsuBK-4" target="-JO1Y7YxCn3ttJPdonMD-0" edge="1">
          <mxGeometry relative="1" as="geometry" />
        </mxCell>
        <mxCell id="eyI3bxU38TPREhqzsuBK-4" value="Login Control" style="ellipse;shape=umlControl;whiteSpace=wrap;html=1;" parent="eyI3bxU38TPREhqzsuBK-1" vertex="1">
          <mxGeometry x="380" y="155" width="78.75" height="90" as="geometry" />
        </mxCell>
        <mxCell id="eyI3bxU38TPREhqzsuBK-5" value="Profile" style="ellipse;shape=umlEntity;whiteSpace=wrap;html=1;" parent="eyI3bxU38TPREhqzsuBK-1" vertex="1">
          <mxGeometry x="260" y="320" width="80" height="80" as="geometry" />
        </mxCell>
        <mxCell id="eyI3bxU38TPREhqzsuBK-6" value="&lt;b&gt;&lt;font style=&quot;font-size: 18px&quot;&gt;Collaboration Diagram: Login&lt;/font&gt;&lt;/b&gt;" style="text;html=1;strokeColor=none;fillColor=none;align=center;verticalAlign=middle;whiteSpace=wrap;rounded=0;" parent="eyI3bxU38TPREhqzsuBK-1" vertex="1">
          <mxGeometry x="40" y="100" width="260" height="20" as="geometry" />
        </mxCell>
        <mxCell id="ZtnMm-Qtx_jKj9Opeqn2-0" value="Account Management" style="ellipse;shape=umlEntity;whiteSpace=wrap;html=1;" parent="eyI3bxU38TPREhqzsuBK-1" vertex="1">
          <mxGeometry x="500" y="320" width="80" height="80" as="geometry" />
        </mxCell>
        <mxCell id="-JO1Y7YxCn3ttJPdonMD-3" style="edgeStyle=none;rounded=0;orthogonalLoop=1;jettySize=auto;html=1;entryX=0;entryY=0.3333333333333333;entryDx=0;entryDy=0;entryPerimeter=0;" parent="eyI3bxU38TPREhqzsuBK-1" source="-JO1Y7YxCn3ttJPdonMD-0" target="-JO1Y7YxCn3ttJPdonMD-2" edge="1">
          <mxGeometry relative="1" as="geometry" />
        </mxCell>
        <mxCell id="-JO1Y7YxCn3ttJPdonMD-0" value="LoginSystem" style="shape=umlBoundary;whiteSpace=wrap;html=1;" parent="eyI3bxU38TPREhqzsuBK-1" vertex="1">
          <mxGeometry x="550" y="160" width="100" height="80" as="geometry" />
        </mxCell>
        <mxCell id="-JO1Y7YxCn3ttJPdonMD-2" value="OAuth" style="shape=umlActor;verticalLabelPosition=bottom;verticalAlign=top;html=1;" parent="eyI3bxU38TPREhqzsuBK-1" vertex="1">
          <mxGeometry x="740" y="180" width="30" height="60" as="geometry" />
        </mxCell>
      </root>
    </mxGraphModel>
  </diagram>
  <diagram id="F0qoJGEh3YIB0ssALN11" name="Status">
    <mxGraphModel dx="1422" dy="794" grid="1" gridSize="10" guides="1" tooltips="1" connect="1" arrows="1" fold="1" page="1" pageScale="1" pageWidth="850" pageHeight="1100" math="0" shadow="0">
      <root>
        <mxCell id="BNGXoRkd15njzyYgnmIY-0" />
        <mxCell id="BNGXoRkd15njzyYgnmIY-1" parent="BNGXoRkd15njzyYgnmIY-0" />
        <mxCell id="8aECuLTwdZYs62ZEH5hH-0" value="&lt;b&gt;&lt;font style=&quot;font-size: 18px&quot;&gt;Collaboration Diagram: Status&lt;br&gt;&lt;/font&gt;&lt;/b&gt;" style="text;html=1;strokeColor=none;fillColor=none;align=center;verticalAlign=middle;whiteSpace=wrap;rounded=0;" parent="BNGXoRkd15njzyYgnmIY-1" vertex="1">
          <mxGeometry x="10" y="100" width="320" height="20" as="geometry" />
        </mxCell>
        <mxCell id="gBjcL2Q_z1IrNc6z1zW4-0" style="edgeStyle=none;rounded=0;orthogonalLoop=1;jettySize=auto;html=1;exitX=1;exitY=0.3333333333333333;exitDx=0;exitDy=0;exitPerimeter=0;" parent="BNGXoRkd15njzyYgnmIY-1" source="gBjcL2Q_z1IrNc6z1zW4-1" target="gBjcL2Q_z1IrNc6z1zW4-3" edge="1">
          <mxGeometry relative="1" as="geometry" />
        </mxCell>
        <mxCell id="gBjcL2Q_z1IrNc6z1zW4-1" value="User" style="shape=umlActor;verticalLabelPosition=bottom;verticalAlign=top;html=1;" parent="BNGXoRkd15njzyYgnmIY-1" vertex="1">
          <mxGeometry x="80" y="190" width="30" height="60" as="geometry" />
        </mxCell>
        <mxCell id="gBjcL2Q_z1IrNc6z1zW4-2" style="edgeStyle=orthogonalEdgeStyle;rounded=0;orthogonalLoop=1;jettySize=auto;html=1;" parent="BNGXoRkd15njzyYgnmIY-1" source="gBjcL2Q_z1IrNc6z1zW4-3" target="gBjcL2Q_z1IrNc6z1zW4-9" edge="1">
          <mxGeometry relative="1" as="geometry" />
        </mxCell>
        <mxCell id="gBjcL2Q_z1IrNc6z1zW4-3" value="Status Panel" style="shape=umlBoundary;whiteSpace=wrap;html=1;" parent="BNGXoRkd15njzyYgnmIY-1" vertex="1">
          <mxGeometry x="210" y="170" width="100" height="80" as="geometry" />
        </mxCell>
        <mxCell id="gBjcL2Q_z1IrNc6z1zW4-4" style="rounded=0;orthogonalLoop=1;jettySize=auto;html=1;" parent="BNGXoRkd15njzyYgnmIY-1" source="gBjcL2Q_z1IrNc6z1zW4-9" target="gBjcL2Q_z1IrNc6z1zW4-10" edge="1">
          <mxGeometry relative="1" as="geometry" />
        </mxCell>
        <mxCell id="gBjcL2Q_z1IrNc6z1zW4-5" style="edgeStyle=none;rounded=0;orthogonalLoop=1;jettySize=auto;html=1;entryX=0.5;entryY=0;entryDx=0;entryDy=0;" parent="BNGXoRkd15njzyYgnmIY-1" source="gBjcL2Q_z1IrNc6z1zW4-9" target="gBjcL2Q_z1IrNc6z1zW4-11" edge="1">
          <mxGeometry relative="1" as="geometry" />
        </mxCell>
        <mxCell id="gBjcL2Q_z1IrNc6z1zW4-8" style="edgeStyle=none;rounded=0;orthogonalLoop=1;jettySize=auto;html=1;entryX=-0.006;entryY=0.505;entryDx=0;entryDy=0;entryPerimeter=0;" parent="BNGXoRkd15njzyYgnmIY-1" source="gBjcL2Q_z1IrNc6z1zW4-9" target="gBjcL2Q_z1IrNc6z1zW4-15" edge="1">
          <mxGeometry relative="1" as="geometry">
            <mxPoint x="537" y="209" as="targetPoint" />
          </mxGeometry>
        </mxCell>
        <mxCell id="gBjcL2Q_z1IrNc6z1zW4-9" value="Status&lt;br&gt;Control" style="ellipse;shape=umlControl;whiteSpace=wrap;html=1;" parent="BNGXoRkd15njzyYgnmIY-1" vertex="1">
          <mxGeometry x="400" y="170" width="70" height="80" as="geometry" />
        </mxCell>
        <mxCell id="gBjcL2Q_z1IrNc6z1zW4-10" value="Sitting Status" style="ellipse;shape=umlEntity;whiteSpace=wrap;html=1;" parent="BNGXoRkd15njzyYgnmIY-1" vertex="1">
          <mxGeometry x="230" y="350" width="80" height="80" as="geometry" />
        </mxCell>
        <mxCell id="gBjcL2Q_z1IrNc6z1zW4-11" value="Eye Status" style="ellipse;shape=umlEntity;whiteSpace=wrap;html=1;" parent="BNGXoRkd15njzyYgnmIY-1" vertex="1">
          <mxGeometry x="520" y="360" width="80" height="80" as="geometry" />
        </mxCell>
        <mxCell id="gBjcL2Q_z1IrNc6z1zW4-14" style="edgeStyle=none;rounded=0;orthogonalLoop=1;jettySize=auto;html=1;entryX=0;entryY=0.3333333333333333;entryDx=0;entryDy=0;entryPerimeter=0;" parent="BNGXoRkd15njzyYgnmIY-1" source="gBjcL2Q_z1IrNc6z1zW4-15" target="gBjcL2Q_z1IrNc6z1zW4-16" edge="1">
          <mxGeometry relative="1" as="geometry" />
        </mxCell>
        <mxCell id="gBjcL2Q_z1IrNc6z1zW4-15" value="Data Storage" style="shape=umlBoundary;whiteSpace=wrap;html=1;" parent="BNGXoRkd15njzyYgnmIY-1" vertex="1">
          <mxGeometry x="540" y="170" width="100" height="80" as="geometry" />
        </mxCell>
        <mxCell id="gBjcL2Q_z1IrNc6z1zW4-16" value="&lt;span&gt;Session Log&lt;/span&gt;" style="shape=umlActor;verticalLabelPosition=bottom;verticalAlign=top;html=1;" parent="BNGXoRkd15njzyYgnmIY-1" vertex="1">
          <mxGeometry x="730" y="190" width="30" height="60" as="geometry" />
        </mxCell>
      </root>
    </mxGraphModel>
  </diagram>
  <diagram id="jyvDDtEgbiojEJ_uR5_s" name="Setting">
    <mxGraphModel dx="1422" dy="794" grid="1" gridSize="10" guides="1" tooltips="1" connect="1" arrows="1" fold="1" page="1" pageScale="1" pageWidth="850" pageHeight="1100" math="0" shadow="0">
      <root>
        <mxCell id="x5EkYHpYVcg8RJxQ3UOt-0" />
        <mxCell id="x5EkYHpYVcg8RJxQ3UOt-1" parent="x5EkYHpYVcg8RJxQ3UOt-0" />
        <mxCell id="o3MKfYxYHTNLRZGvTpfU-0" value="&lt;b&gt;&lt;font style=&quot;font-size: 18px&quot;&gt;Collaboration Diagram: Setting&lt;br&gt;&lt;/font&gt;&lt;/b&gt;" style="text;html=1;strokeColor=none;fillColor=none;align=center;verticalAlign=middle;whiteSpace=wrap;rounded=0;" parent="x5EkYHpYVcg8RJxQ3UOt-1" vertex="1">
          <mxGeometry x="10" y="100" width="320" height="20" as="geometry" />
        </mxCell>
        <mxCell id="fcTOYN8bLcCC6jtCHj9_-0" style="edgeStyle=none;rounded=0;orthogonalLoop=1;jettySize=auto;html=1;exitX=1;exitY=0.3333333333333333;exitDx=0;exitDy=0;exitPerimeter=0;" parent="x5EkYHpYVcg8RJxQ3UOt-1" source="fcTOYN8bLcCC6jtCHj9_-1" target="fcTOYN8bLcCC6jtCHj9_-3" edge="1">
          <mxGeometry relative="1" as="geometry" />
        </mxCell>
        <mxCell id="fcTOYN8bLcCC6jtCHj9_-1" value="User" style="shape=umlActor;verticalLabelPosition=bottom;verticalAlign=top;html=1;" parent="x5EkYHpYVcg8RJxQ3UOt-1" vertex="1">
          <mxGeometry x="80" y="190" width="30" height="60" as="geometry" />
        </mxCell>
        <mxCell id="fcTOYN8bLcCC6jtCHj9_-2" style="edgeStyle=orthogonalEdgeStyle;rounded=0;orthogonalLoop=1;jettySize=auto;html=1;" parent="x5EkYHpYVcg8RJxQ3UOt-1" source="fcTOYN8bLcCC6jtCHj9_-3" target="fcTOYN8bLcCC6jtCHj9_-7" edge="1">
          <mxGeometry relative="1" as="geometry" />
        </mxCell>
        <mxCell id="fcTOYN8bLcCC6jtCHj9_-3" value="Setting Panel" style="shape=umlBoundary;whiteSpace=wrap;html=1;" parent="x5EkYHpYVcg8RJxQ3UOt-1" vertex="1">
          <mxGeometry x="210" y="170" width="100" height="80" as="geometry" />
        </mxCell>
        <mxCell id="fcTOYN8bLcCC6jtCHj9_-4" style="rounded=0;orthogonalLoop=1;jettySize=auto;html=1;" parent="x5EkYHpYVcg8RJxQ3UOt-1" source="fcTOYN8bLcCC6jtCHj9_-7" target="fcTOYN8bLcCC6jtCHj9_-8" edge="1">
          <mxGeometry relative="1" as="geometry" />
        </mxCell>
        <mxCell id="fcTOYN8bLcCC6jtCHj9_-5" style="edgeStyle=none;rounded=0;orthogonalLoop=1;jettySize=auto;html=1;entryX=0.5;entryY=0;entryDx=0;entryDy=0;" parent="x5EkYHpYVcg8RJxQ3UOt-1" source="fcTOYN8bLcCC6jtCHj9_-7" target="fcTOYN8bLcCC6jtCHj9_-9" edge="1">
          <mxGeometry relative="1" as="geometry" />
        </mxCell>
        <mxCell id="fcTOYN8bLcCC6jtCHj9_-7" value="Setting&lt;br&gt;Control" style="ellipse;shape=umlControl;whiteSpace=wrap;html=1;" parent="x5EkYHpYVcg8RJxQ3UOt-1" vertex="1">
          <mxGeometry x="400" y="170" width="70" height="80" as="geometry" />
        </mxCell>
        <mxCell id="fcTOYN8bLcCC6jtCHj9_-8" value="Device" style="ellipse;shape=umlEntity;whiteSpace=wrap;html=1;" parent="x5EkYHpYVcg8RJxQ3UOt-1" vertex="1">
          <mxGeometry x="230" y="390" width="80" height="80" as="geometry" />
        </mxCell>
        <mxCell id="fcTOYN8bLcCC6jtCHj9_-9" value="Notification" style="ellipse;shape=umlEntity;whiteSpace=wrap;html=1;" parent="x5EkYHpYVcg8RJxQ3UOt-1" vertex="1">
          <mxGeometry x="530" y="390" width="80" height="80" as="geometry" />
        </mxCell>
      </root>
    </mxGraphModel>
  </diagram>
  <diagram id="R28Xfm-PsqryF0zK5XKM" name="Calibrate Camera">
    <mxGraphModel dx="1422" dy="794" grid="1" gridSize="10" guides="1" tooltips="1" connect="1" arrows="1" fold="1" page="1" pageScale="1" pageWidth="850" pageHeight="1100" math="0" shadow="0">
      <root>
        <mxCell id="K3Vmqt9MC-BAndYDo2Zg-0" />
        <mxCell id="K3Vmqt9MC-BAndYDo2Zg-1" parent="K3Vmqt9MC-BAndYDo2Zg-0" />
        <mxCell id="SzQoAxixKiIlWcR2m3mm-0" style="edgeStyle=none;rounded=0;orthogonalLoop=1;jettySize=auto;html=1;exitX=1;exitY=0.3333333333333333;exitDx=0;exitDy=0;exitPerimeter=0;" parent="K3Vmqt9MC-BAndYDo2Zg-1" source="SzQoAxixKiIlWcR2m3mm-1" target="SzQoAxixKiIlWcR2m3mm-3" edge="1">
          <mxGeometry relative="1" as="geometry" />
        </mxCell>
        <mxCell id="SzQoAxixKiIlWcR2m3mm-1" value="User" style="shape=umlActor;verticalLabelPosition=bottom;verticalAlign=top;html=1;" parent="K3Vmqt9MC-BAndYDo2Zg-1" vertex="1">
          <mxGeometry x="80" y="190" width="30" height="60" as="geometry" />
        </mxCell>
        <mxCell id="SzQoAxixKiIlWcR2m3mm-2" style="edgeStyle=orthogonalEdgeStyle;rounded=0;orthogonalLoop=1;jettySize=auto;html=1;" parent="K3Vmqt9MC-BAndYDo2Zg-1" source="SzQoAxixKiIlWcR2m3mm-3" target="SzQoAxixKiIlWcR2m3mm-6" edge="1">
          <mxGeometry relative="1" as="geometry" />
        </mxCell>
        <mxCell id="SzQoAxixKiIlWcR2m3mm-3" value="Calibrate Camera Panel" style="shape=umlBoundary;whiteSpace=wrap;html=1;" parent="K3Vmqt9MC-BAndYDo2Zg-1" vertex="1">
          <mxGeometry x="210" y="170" width="100" height="80" as="geometry" />
        </mxCell>
        <mxCell id="SzQoAxixKiIlWcR2m3mm-4" style="rounded=0;orthogonalLoop=1;jettySize=auto;html=1;" parent="K3Vmqt9MC-BAndYDo2Zg-1" source="SzQoAxixKiIlWcR2m3mm-6" target="SzQoAxixKiIlWcR2m3mm-7" edge="1">
          <mxGeometry relative="1" as="geometry" />
        </mxCell>
        <mxCell id="RGBgkfgTasmFGn7kktio-3" style="edgeStyle=orthogonalEdgeStyle;rounded=0;orthogonalLoop=1;jettySize=auto;html=1;entryX=-0.013;entryY=0.501;entryDx=0;entryDy=0;entryPerimeter=0;" parent="K3Vmqt9MC-BAndYDo2Zg-1" source="SzQoAxixKiIlWcR2m3mm-6" target="RGBgkfgTasmFGn7kktio-1" edge="1">
          <mxGeometry relative="1" as="geometry" />
        </mxCell>
        <mxCell id="SzQoAxixKiIlWcR2m3mm-6" value="Calibrate&lt;br&gt;Control" style="ellipse;shape=umlControl;whiteSpace=wrap;html=1;" parent="K3Vmqt9MC-BAndYDo2Zg-1" vertex="1">
          <mxGeometry x="400" y="170" width="70" height="80" as="geometry" />
        </mxCell>
        <mxCell id="MJuNOGljZjmwG83CneEA-3" style="edgeStyle=none;rounded=0;orthogonalLoop=1;jettySize=auto;html=1;" parent="K3Vmqt9MC-BAndYDo2Zg-1" source="SzQoAxixKiIlWcR2m3mm-7" target="MJuNOGljZjmwG83CneEA-0" edge="1">
          <mxGeometry relative="1" as="geometry" />
        </mxCell>
        <mxCell id="SzQoAxixKiIlWcR2m3mm-7" value="Device" style="ellipse;shape=umlEntity;whiteSpace=wrap;html=1;" parent="K3Vmqt9MC-BAndYDo2Zg-1" vertex="1">
          <mxGeometry x="395" y="320" width="80" height="80" as="geometry" />
        </mxCell>
        <mxCell id="RGBgkfgTasmFGn7kktio-0" value="&lt;b&gt;&lt;font style=&quot;font-size: 18px&quot;&gt;Collaboration Diagram: Calibrate Camera&lt;br&gt;&lt;/font&gt;&lt;/b&gt;" style="text;html=1;strokeColor=none;fillColor=none;align=center;verticalAlign=middle;whiteSpace=wrap;rounded=0;" parent="K3Vmqt9MC-BAndYDo2Zg-1" vertex="1">
          <mxGeometry x="15" y="100" width="410" height="20" as="geometry" />
        </mxCell>
        <mxCell id="RGBgkfgTasmFGn7kktio-1" value="Setting" style="shape=umlBoundary;whiteSpace=wrap;html=1;" parent="K3Vmqt9MC-BAndYDo2Zg-1" vertex="1">
          <mxGeometry x="570" y="170" width="100" height="80" as="geometry" />
        </mxCell>
        <mxCell id="MJuNOGljZjmwG83CneEA-0" value="Camera" style="ellipse;shape=umlEntity;whiteSpace=wrap;html=1;" parent="K3Vmqt9MC-BAndYDo2Zg-1" vertex="1">
          <mxGeometry x="395" y="460" width="80" height="80" as="geometry" />
        </mxCell>
      </root>
    </mxGraphModel>
  </diagram>
  <diagram id="1QCNWz2imUXT27t_IRqx" name="Set notification">
    <mxGraphModel dx="1422" dy="794" grid="1" gridSize="10" guides="1" tooltips="1" connect="1" arrows="1" fold="1" page="1" pageScale="1" pageWidth="850" pageHeight="1100" math="0" shadow="0">
      <root>
        <mxCell id="GXrquDd_tzQjIHSP8qKM-0" />
        <mxCell id="GXrquDd_tzQjIHSP8qKM-1" parent="GXrquDd_tzQjIHSP8qKM-0" />
        <mxCell id="hF3vw0Q2NBW5jNHxbiV_-0" value="&lt;b&gt;&lt;font style=&quot;font-size: 18px&quot;&gt;Collaboration Diagram: Set Notification&lt;br&gt;&lt;/font&gt;&lt;/b&gt;" style="text;html=1;strokeColor=none;fillColor=none;align=center;verticalAlign=middle;whiteSpace=wrap;rounded=0;" parent="GXrquDd_tzQjIHSP8qKM-1" vertex="1">
          <mxGeometry y="100" width="410" height="20" as="geometry" />
        </mxCell>
        <mxCell id="Rcd2PwfejFerqppOdsfa-0" style="edgeStyle=none;rounded=0;orthogonalLoop=1;jettySize=auto;html=1;exitX=1;exitY=0.3333333333333333;exitDx=0;exitDy=0;exitPerimeter=0;" parent="GXrquDd_tzQjIHSP8qKM-1" source="Rcd2PwfejFerqppOdsfa-1" target="Rcd2PwfejFerqppOdsfa-3" edge="1">
          <mxGeometry relative="1" as="geometry" />
        </mxCell>
        <mxCell id="Rcd2PwfejFerqppOdsfa-1" value="User" style="shape=umlActor;verticalLabelPosition=bottom;verticalAlign=top;html=1;" parent="GXrquDd_tzQjIHSP8qKM-1" vertex="1">
          <mxGeometry x="80" y="190" width="30" height="60" as="geometry" />
        </mxCell>
        <mxCell id="Rcd2PwfejFerqppOdsfa-2" style="edgeStyle=orthogonalEdgeStyle;rounded=0;orthogonalLoop=1;jettySize=auto;html=1;" parent="GXrquDd_tzQjIHSP8qKM-1" source="Rcd2PwfejFerqppOdsfa-3" target="Rcd2PwfejFerqppOdsfa-6" edge="1">
          <mxGeometry relative="1" as="geometry" />
        </mxCell>
        <mxCell id="Rcd2PwfejFerqppOdsfa-3" value="Notification Setting Panel" style="shape=umlBoundary;whiteSpace=wrap;html=1;" parent="GXrquDd_tzQjIHSP8qKM-1" vertex="1">
          <mxGeometry x="210" y="170" width="100" height="80" as="geometry" />
        </mxCell>
        <mxCell id="Rcd2PwfejFerqppOdsfa-4" style="rounded=0;orthogonalLoop=1;jettySize=auto;html=1;" parent="GXrquDd_tzQjIHSP8qKM-1" source="Rcd2PwfejFerqppOdsfa-6" target="Rcd2PwfejFerqppOdsfa-8" edge="1">
          <mxGeometry relative="1" as="geometry" />
        </mxCell>
        <mxCell id="Rcd2PwfejFerqppOdsfa-5" style="edgeStyle=orthogonalEdgeStyle;rounded=0;orthogonalLoop=1;jettySize=auto;html=1;entryX=-0.013;entryY=0.501;entryDx=0;entryDy=0;entryPerimeter=0;" parent="GXrquDd_tzQjIHSP8qKM-1" source="Rcd2PwfejFerqppOdsfa-6" target="Rcd2PwfejFerqppOdsfa-9" edge="1">
          <mxGeometry relative="1" as="geometry" />
        </mxCell>
        <mxCell id="Rcd2PwfejFerqppOdsfa-6" value="Notification&lt;br&gt;Control" style="ellipse;shape=umlControl;whiteSpace=wrap;html=1;" parent="GXrquDd_tzQjIHSP8qKM-1" vertex="1">
          <mxGeometry x="400" y="170" width="70" height="80" as="geometry" />
        </mxCell>
        <mxCell id="NVDUwXGByoOoZvnNVpWs-2" style="edgeStyle=none;rounded=0;orthogonalLoop=1;jettySize=auto;html=1;entryX=0.709;entryY=0.025;entryDx=0;entryDy=0;entryPerimeter=0;" parent="GXrquDd_tzQjIHSP8qKM-1" source="Rcd2PwfejFerqppOdsfa-8" target="NVDUwXGByoOoZvnNVpWs-0" edge="1">
          <mxGeometry relative="1" as="geometry" />
        </mxCell>
        <mxCell id="NVDUwXGByoOoZvnNVpWs-3" style="edgeStyle=none;rounded=0;orthogonalLoop=1;jettySize=auto;html=1;entryX=0.5;entryY=0;entryDx=0;entryDy=0;" parent="GXrquDd_tzQjIHSP8qKM-1" source="Rcd2PwfejFerqppOdsfa-8" target="NVDUwXGByoOoZvnNVpWs-1" edge="1">
          <mxGeometry relative="1" as="geometry" />
        </mxCell>
        <mxCell id="Rcd2PwfejFerqppOdsfa-8" value="Notification" style="ellipse;shape=umlEntity;whiteSpace=wrap;html=1;" parent="GXrquDd_tzQjIHSP8qKM-1" vertex="1">
          <mxGeometry x="395" y="310" width="80" height="80" as="geometry" />
        </mxCell>
        <mxCell id="Rcd2PwfejFerqppOdsfa-9" value="Setting" style="shape=umlBoundary;whiteSpace=wrap;html=1;" parent="GXrquDd_tzQjIHSP8qKM-1" vertex="1">
          <mxGeometry x="570" y="170" width="100" height="80" as="geometry" />
        </mxCell>
        <mxCell id="NVDUwXGByoOoZvnNVpWs-0" value="Time for sitting notification" style="ellipse;shape=umlEntity;whiteSpace=wrap;html=1;" parent="GXrquDd_tzQjIHSP8qKM-1" vertex="1">
          <mxGeometry x="300" y="440" width="80" height="80" as="geometry" />
        </mxCell>
        <mxCell id="NVDUwXGByoOoZvnNVpWs-1" value="Time for eyes notification" style="ellipse;shape=umlEntity;whiteSpace=wrap;html=1;" parent="GXrquDd_tzQjIHSP8qKM-1" vertex="1">
          <mxGeometry x="490" y="440" width="80" height="80" as="geometry" />
        </mxCell>
      </root>
    </mxGraphModel>
  </diagram>
  <diagram id="xlRFx1aNRkNpszgba4GR" name="Status History">
    <mxGraphModel dx="1422" dy="794" grid="1" gridSize="10" guides="1" tooltips="1" connect="1" arrows="1" fold="1" page="1" pageScale="1" pageWidth="850" pageHeight="1100" math="0" shadow="0">
      <root>
        <mxCell id="4So3e5aramubywEqJuDa-0" />
        <mxCell id="4So3e5aramubywEqJuDa-1" parent="4So3e5aramubywEqJuDa-0" />
        <mxCell id="WvCYf4-W8Es1v8o5LDSw-0" value="&lt;b&gt;&lt;font style=&quot;font-size: 18px&quot;&gt;Collaboration Diagram: Status History&lt;br&gt;&lt;/font&gt;&lt;/b&gt;" style="text;html=1;strokeColor=none;fillColor=none;align=center;verticalAlign=middle;whiteSpace=wrap;rounded=0;" parent="4So3e5aramubywEqJuDa-1" vertex="1">
          <mxGeometry y="100" width="410" height="20" as="geometry" />
        </mxCell>
        <mxCell id="hV5VBeEVOvzy4CtHr1QJ-0" style="edgeStyle=none;rounded=0;orthogonalLoop=1;jettySize=auto;html=1;exitX=1;exitY=0.3333333333333333;exitDx=0;exitDy=0;exitPerimeter=0;" parent="4So3e5aramubywEqJuDa-1" source="hV5VBeEVOvzy4CtHr1QJ-1" target="hV5VBeEVOvzy4CtHr1QJ-3" edge="1">
          <mxGeometry relative="1" as="geometry" />
        </mxCell>
        <mxCell id="hV5VBeEVOvzy4CtHr1QJ-1" value="User" style="shape=umlActor;verticalLabelPosition=bottom;verticalAlign=top;html=1;" parent="4So3e5aramubywEqJuDa-1" vertex="1">
          <mxGeometry x="80" y="160" width="30" height="60" as="geometry" />
        </mxCell>
        <mxCell id="hV5VBeEVOvzy4CtHr1QJ-2" style="edgeStyle=orthogonalEdgeStyle;rounded=0;orthogonalLoop=1;jettySize=auto;html=1;" parent="4So3e5aramubywEqJuDa-1" source="hV5VBeEVOvzy4CtHr1QJ-3" target="hV5VBeEVOvzy4CtHr1QJ-9" edge="1">
          <mxGeometry relative="1" as="geometry" />
        </mxCell>
        <mxCell id="hV5VBeEVOvzy4CtHr1QJ-3" value="Status Panel" style="shape=umlBoundary;whiteSpace=wrap;html=1;" parent="4So3e5aramubywEqJuDa-1" vertex="1">
          <mxGeometry x="210" y="140" width="100" height="80" as="geometry" />
        </mxCell>
        <mxCell id="hV5VBeEVOvzy4CtHr1QJ-4" style="rounded=0;orthogonalLoop=1;jettySize=auto;html=1;" parent="4So3e5aramubywEqJuDa-1" source="hV5VBeEVOvzy4CtHr1QJ-9" target="hV5VBeEVOvzy4CtHr1QJ-10" edge="1">
          <mxGeometry relative="1" as="geometry" />
        </mxCell>
        <mxCell id="hV5VBeEVOvzy4CtHr1QJ-8" style="edgeStyle=none;rounded=0;orthogonalLoop=1;jettySize=auto;html=1;entryX=-0.006;entryY=0.505;entryDx=0;entryDy=0;entryPerimeter=0;" parent="4So3e5aramubywEqJuDa-1" source="hV5VBeEVOvzy4CtHr1QJ-9" target="hV5VBeEVOvzy4CtHr1QJ-15" edge="1">
          <mxGeometry relative="1" as="geometry">
            <mxPoint x="537" y="179" as="targetPoint" />
          </mxGeometry>
        </mxCell>
        <mxCell id="hV5VBeEVOvzy4CtHr1QJ-9" value="Status&lt;br&gt;Controller" style="ellipse;shape=umlControl;whiteSpace=wrap;html=1;" parent="4So3e5aramubywEqJuDa-1" vertex="1">
          <mxGeometry x="400" y="140" width="70" height="80" as="geometry" />
        </mxCell>
        <mxCell id="L4mJDj6ZtP9Yda7B4Gqd-3" style="edgeStyle=none;rounded=0;orthogonalLoop=1;jettySize=auto;html=1;" parent="4So3e5aramubywEqJuDa-1" source="hV5VBeEVOvzy4CtHr1QJ-10" target="L4mJDj6ZtP9Yda7B4Gqd-0" edge="1">
          <mxGeometry relative="1" as="geometry" />
        </mxCell>
        <mxCell id="L4mJDj6ZtP9Yda7B4Gqd-4" style="edgeStyle=none;rounded=0;orthogonalLoop=1;jettySize=auto;html=1;entryX=0.313;entryY=0;entryDx=0;entryDy=0;entryPerimeter=0;" parent="4So3e5aramubywEqJuDa-1" source="hV5VBeEVOvzy4CtHr1QJ-10" target="L4mJDj6ZtP9Yda7B4Gqd-1" edge="1">
          <mxGeometry relative="1" as="geometry" />
        </mxCell>
        <mxCell id="hV5VBeEVOvzy4CtHr1QJ-10" value="Status History" style="ellipse;shape=umlEntity;whiteSpace=wrap;html=1;" parent="4So3e5aramubywEqJuDa-1" vertex="1">
          <mxGeometry x="395" y="260" width="80" height="80" as="geometry" />
        </mxCell>
        <mxCell id="hV5VBeEVOvzy4CtHr1QJ-14" style="edgeStyle=none;rounded=0;orthogonalLoop=1;jettySize=auto;html=1;entryX=0;entryY=0.3333333333333333;entryDx=0;entryDy=0;entryPerimeter=0;" parent="4So3e5aramubywEqJuDa-1" source="hV5VBeEVOvzy4CtHr1QJ-15" target="hV5VBeEVOvzy4CtHr1QJ-16" edge="1">
          <mxGeometry relative="1" as="geometry" />
        </mxCell>
        <mxCell id="hV5VBeEVOvzy4CtHr1QJ-15" value="Data Storage" style="shape=umlBoundary;whiteSpace=wrap;html=1;" parent="4So3e5aramubywEqJuDa-1" vertex="1">
          <mxGeometry x="540" y="140" width="100" height="80" as="geometry" />
        </mxCell>
        <mxCell id="hV5VBeEVOvzy4CtHr1QJ-16" value="&lt;span&gt;User Data CSV&amp;nbsp;&lt;/span&gt;" style="shape=umlActor;verticalLabelPosition=bottom;verticalAlign=top;html=1;" parent="4So3e5aramubywEqJuDa-1" vertex="1">
          <mxGeometry x="730" y="160" width="30" height="60" as="geometry" />
        </mxCell>
        <mxCell id="L4mJDj6ZtP9Yda7B4Gqd-0" value="Sitting" style="ellipse;shape=umlEntity;whiteSpace=wrap;html=1;" parent="4So3e5aramubywEqJuDa-1" vertex="1">
          <mxGeometry x="280" y="360" width="80" height="80" as="geometry" />
        </mxCell>
        <mxCell id="L4mJDj6ZtP9Yda7B4Gqd-1" value="Eyes" style="ellipse;shape=umlEntity;whiteSpace=wrap;html=1;" parent="4So3e5aramubywEqJuDa-1" vertex="1">
          <mxGeometry x="520" y="360" width="80" height="80" as="geometry" />
        </mxCell>
      </root>
    </mxGraphModel>
  </diagram>
  <diagram id="my7UG1GfrY750owuSqza" name="Capturing">
    <mxGraphModel dx="1422" dy="794" grid="1" gridSize="10" guides="1" tooltips="1" connect="1" arrows="1" fold="1" page="1" pageScale="1" pageWidth="850" pageHeight="1100" math="0" shadow="0">
      <root>
        <mxCell id="dgDv74cfmZE7JUt7lPtN-0" />
        <mxCell id="dgDv74cfmZE7JUt7lPtN-1" parent="dgDv74cfmZE7JUt7lPtN-0" />
        <mxCell id="XyhCZHaGVb94U_0TCDU2-0" value="&lt;b&gt;&lt;font style=&quot;font-size: 18px&quot;&gt;Collaboration Diagram: Capturing&lt;br&gt;&lt;/font&gt;&lt;/b&gt;" style="text;html=1;strokeColor=none;fillColor=none;align=center;verticalAlign=middle;whiteSpace=wrap;rounded=0;" parent="dgDv74cfmZE7JUt7lPtN-1" vertex="1">
          <mxGeometry y="100" width="410" height="20" as="geometry" />
        </mxCell>
        <mxCell id="Db7cVb24BE1-LFxRPsyw-0" style="edgeStyle=none;rounded=0;orthogonalLoop=1;jettySize=auto;html=1;exitX=1;exitY=0.3333333333333333;exitDx=0;exitDy=0;exitPerimeter=0;" parent="dgDv74cfmZE7JUt7lPtN-1" source="Db7cVb24BE1-LFxRPsyw-1" target="Db7cVb24BE1-LFxRPsyw-3" edge="1">
          <mxGeometry relative="1" as="geometry" />
        </mxCell>
        <mxCell id="Db7cVb24BE1-LFxRPsyw-1" value="User" style="shape=umlActor;verticalLabelPosition=bottom;verticalAlign=top;html=1;" parent="dgDv74cfmZE7JUt7lPtN-1" vertex="1">
          <mxGeometry x="80" y="160" width="30" height="60" as="geometry" />
        </mxCell>
        <mxCell id="Db7cVb24BE1-LFxRPsyw-2" style="edgeStyle=orthogonalEdgeStyle;rounded=0;orthogonalLoop=1;jettySize=auto;html=1;" parent="dgDv74cfmZE7JUt7lPtN-1" source="Db7cVb24BE1-LFxRPsyw-3" target="Db7cVb24BE1-LFxRPsyw-6" edge="1">
          <mxGeometry relative="1" as="geometry" />
        </mxCell>
        <mxCell id="Db7cVb24BE1-LFxRPsyw-3" value="Capturing Panel" style="shape=umlBoundary;whiteSpace=wrap;html=1;" parent="dgDv74cfmZE7JUt7lPtN-1" vertex="1">
          <mxGeometry x="210" y="140" width="100" height="80" as="geometry" />
        </mxCell>
        <mxCell id="Db7cVb24BE1-LFxRPsyw-4" style="rounded=0;orthogonalLoop=1;jettySize=auto;html=1;" parent="dgDv74cfmZE7JUt7lPtN-1" source="Db7cVb24BE1-LFxRPsyw-6" target="Db7cVb24BE1-LFxRPsyw-9" edge="1">
          <mxGeometry relative="1" as="geometry" />
        </mxCell>
        <mxCell id="Db7cVb24BE1-LFxRPsyw-5" style="edgeStyle=none;rounded=0;orthogonalLoop=1;jettySize=auto;html=1;entryX=-0.006;entryY=0.505;entryDx=0;entryDy=0;entryPerimeter=0;" parent="dgDv74cfmZE7JUt7lPtN-1" source="Db7cVb24BE1-LFxRPsyw-6" target="Db7cVb24BE1-LFxRPsyw-11" edge="1">
          <mxGeometry relative="1" as="geometry">
            <mxPoint x="537" y="179" as="targetPoint" />
          </mxGeometry>
        </mxCell>
        <mxCell id="Db7cVb24BE1-LFxRPsyw-17" style="edgeStyle=none;rounded=0;orthogonalLoop=1;jettySize=auto;html=1;" parent="dgDv74cfmZE7JUt7lPtN-1" source="Db7cVb24BE1-LFxRPsyw-6" target="Db7cVb24BE1-LFxRPsyw-15" edge="1">
          <mxGeometry relative="1" as="geometry" />
        </mxCell>
        <mxCell id="Db7cVb24BE1-LFxRPsyw-6" value="Capture&lt;br&gt;Controller" style="ellipse;shape=umlControl;whiteSpace=wrap;html=1;" parent="dgDv74cfmZE7JUt7lPtN-1" vertex="1">
          <mxGeometry x="400" y="140" width="70" height="80" as="geometry" />
        </mxCell>
        <mxCell id="Db7cVb24BE1-LFxRPsyw-7" style="edgeStyle=none;rounded=0;orthogonalLoop=1;jettySize=auto;html=1;" parent="dgDv74cfmZE7JUt7lPtN-1" source="Db7cVb24BE1-LFxRPsyw-9" target="Db7cVb24BE1-LFxRPsyw-13" edge="1">
          <mxGeometry relative="1" as="geometry" />
        </mxCell>
        <mxCell id="Db7cVb24BE1-LFxRPsyw-8" style="edgeStyle=none;rounded=0;orthogonalLoop=1;jettySize=auto;html=1;entryX=0.313;entryY=0;entryDx=0;entryDy=0;entryPerimeter=0;" parent="dgDv74cfmZE7JUt7lPtN-1" source="Db7cVb24BE1-LFxRPsyw-9" target="Db7cVb24BE1-LFxRPsyw-14" edge="1">
          <mxGeometry relative="1" as="geometry" />
        </mxCell>
        <mxCell id="Db7cVb24BE1-LFxRPsyw-9" value="Capturing" style="ellipse;shape=umlEntity;whiteSpace=wrap;html=1;" parent="dgDv74cfmZE7JUt7lPtN-1" vertex="1">
          <mxGeometry x="310" y="280" width="80" height="80" as="geometry" />
        </mxCell>
        <mxCell id="Db7cVb24BE1-LFxRPsyw-10" style="edgeStyle=none;rounded=0;orthogonalLoop=1;jettySize=auto;html=1;entryX=0;entryY=0.3333333333333333;entryDx=0;entryDy=0;entryPerimeter=0;" parent="dgDv74cfmZE7JUt7lPtN-1" source="Db7cVb24BE1-LFxRPsyw-11" target="Db7cVb24BE1-LFxRPsyw-12" edge="1">
          <mxGeometry relative="1" as="geometry" />
        </mxCell>
        <mxCell id="Db7cVb24BE1-LFxRPsyw-11" value="Data Storage" style="shape=umlBoundary;whiteSpace=wrap;html=1;" parent="dgDv74cfmZE7JUt7lPtN-1" vertex="1">
          <mxGeometry x="540" y="140" width="100" height="80" as="geometry" />
        </mxCell>
        <mxCell id="Db7cVb24BE1-LFxRPsyw-12" value="&lt;span&gt;User Data CSV&amp;nbsp;&lt;/span&gt;" style="shape=umlActor;verticalLabelPosition=bottom;verticalAlign=top;html=1;" parent="dgDv74cfmZE7JUt7lPtN-1" vertex="1">
          <mxGeometry x="740" y="160" width="30" height="60" as="geometry" />
        </mxCell>
        <mxCell id="Db7cVb24BE1-LFxRPsyw-13" value="Sitting" style="ellipse;shape=umlEntity;whiteSpace=wrap;html=1;" parent="dgDv74cfmZE7JUt7lPtN-1" vertex="1">
          <mxGeometry x="220" y="400" width="80" height="80" as="geometry" />
        </mxCell>
        <mxCell id="Db7cVb24BE1-LFxRPsyw-14" value="Eyes" style="ellipse;shape=umlEntity;whiteSpace=wrap;html=1;" parent="dgDv74cfmZE7JUt7lPtN-1" vertex="1">
          <mxGeometry x="400" y="400" width="80" height="80" as="geometry" />
        </mxCell>
        <mxCell id="Db7cVb24BE1-LFxRPsyw-18" style="edgeStyle=none;rounded=0;orthogonalLoop=1;jettySize=auto;html=1;" parent="dgDv74cfmZE7JUt7lPtN-1" source="Db7cVb24BE1-LFxRPsyw-15" target="Db7cVb24BE1-LFxRPsyw-16" edge="1">
          <mxGeometry relative="1" as="geometry" />
        </mxCell>
        <mxCell id="Db7cVb24BE1-LFxRPsyw-15" value="Detecting" style="ellipse;shape=umlEntity;whiteSpace=wrap;html=1;" parent="dgDv74cfmZE7JUt7lPtN-1" vertex="1">
          <mxGeometry x="490" y="280" width="80" height="80" as="geometry" />
        </mxCell>
        <mxCell id="Db7cVb24BE1-LFxRPsyw-16" value="Notification" style="ellipse;shape=umlEntity;whiteSpace=wrap;html=1;" parent="dgDv74cfmZE7JUt7lPtN-1" vertex="1">
          <mxGeometry x="600" y="400" width="80" height="80" as="geometry" />
        </mxCell>
      </root>
    </mxGraphModel>
  </diagram>
  <diagram id="_EJOVH6VQ57uW8s-0DLh" name="Detect posture">
    <mxGraphModel dx="1422" dy="794" grid="1" gridSize="10" guides="1" tooltips="1" connect="1" arrows="1" fold="1" page="1" pageScale="1" pageWidth="850" pageHeight="1100" math="0" shadow="0">
      <root>
        <mxCell id="dwgja9_aLluJzlboGXBk-0" />
        <mxCell id="dwgja9_aLluJzlboGXBk-1" parent="dwgja9_aLluJzlboGXBk-0" />
        <mxCell id="hx959JsxNmS_JEfUvVRG-0" value="&lt;b&gt;&lt;font style=&quot;font-size: 18px&quot;&gt;Collaboration Diagram: Detect Posture&lt;br&gt;&lt;/font&gt;&lt;/b&gt;" style="text;html=1;strokeColor=none;fillColor=none;align=center;verticalAlign=middle;whiteSpace=wrap;rounded=0;" parent="dwgja9_aLluJzlboGXBk-1" vertex="1">
          <mxGeometry y="100" width="410" height="20" as="geometry" />
        </mxCell>
        <mxCell id="sSDFkujttd-oJQ3VF6Oa-0" style="edgeStyle=none;rounded=0;orthogonalLoop=1;jettySize=auto;html=1;exitX=1;exitY=0.3333333333333333;exitDx=0;exitDy=0;exitPerimeter=0;" parent="dwgja9_aLluJzlboGXBk-1" source="sSDFkujttd-oJQ3VF6Oa-1" target="sSDFkujttd-oJQ3VF6Oa-3" edge="1">
          <mxGeometry relative="1" as="geometry" />
        </mxCell>
        <mxCell id="sSDFkujttd-oJQ3VF6Oa-1" value="User" style="shape=umlActor;verticalLabelPosition=bottom;verticalAlign=top;html=1;" parent="dwgja9_aLluJzlboGXBk-1" vertex="1">
          <mxGeometry x="80" y="160" width="30" height="60" as="geometry" />
        </mxCell>
        <mxCell id="sSDFkujttd-oJQ3VF6Oa-2" style="edgeStyle=orthogonalEdgeStyle;rounded=0;orthogonalLoop=1;jettySize=auto;html=1;" parent="dwgja9_aLluJzlboGXBk-1" source="sSDFkujttd-oJQ3VF6Oa-3" target="sSDFkujttd-oJQ3VF6Oa-7" edge="1">
          <mxGeometry relative="1" as="geometry" />
        </mxCell>
        <mxCell id="sSDFkujttd-oJQ3VF6Oa-3" value="Detection Monitor&amp;nbsp;" style="shape=umlBoundary;whiteSpace=wrap;html=1;" parent="dwgja9_aLluJzlboGXBk-1" vertex="1">
          <mxGeometry x="210" y="140" width="100" height="80" as="geometry" />
        </mxCell>
        <mxCell id="sSDFkujttd-oJQ3VF6Oa-6" style="edgeStyle=none;rounded=0;orthogonalLoop=1;jettySize=auto;html=1;" parent="dwgja9_aLluJzlboGXBk-1" source="sSDFkujttd-oJQ3VF6Oa-7" target="sSDFkujttd-oJQ3VF6Oa-17" edge="1">
          <mxGeometry relative="1" as="geometry" />
        </mxCell>
        <mxCell id="sSDFkujttd-oJQ3VF6Oa-7" value="Detect&lt;br&gt;Controller" style="ellipse;shape=umlControl;whiteSpace=wrap;html=1;" parent="dwgja9_aLluJzlboGXBk-1" vertex="1">
          <mxGeometry x="400" y="140" width="70" height="80" as="geometry" />
        </mxCell>
        <mxCell id="sSDFkujttd-oJQ3VF6Oa-12" value="Notofication" style="shape=umlBoundary;whiteSpace=wrap;html=1;" parent="dwgja9_aLluJzlboGXBk-1" vertex="1">
          <mxGeometry x="375" y="420" width="100" height="80" as="geometry" />
        </mxCell>
        <mxCell id="Me6VDFhjH0syG713Nvmy-0" style="edgeStyle=none;rounded=0;orthogonalLoop=1;jettySize=auto;html=1;entryX=0.58;entryY=-0.012;entryDx=0;entryDy=0;entryPerimeter=0;" parent="dwgja9_aLluJzlboGXBk-1" source="sSDFkujttd-oJQ3VF6Oa-17" target="sSDFkujttd-oJQ3VF6Oa-12" edge="1">
          <mxGeometry relative="1" as="geometry" />
        </mxCell>
        <mxCell id="sSDFkujttd-oJQ3VF6Oa-17" value="Detecting" style="ellipse;shape=umlEntity;whiteSpace=wrap;html=1;" parent="dwgja9_aLluJzlboGXBk-1" vertex="1">
          <mxGeometry x="395" y="280" width="80" height="80" as="geometry" />
        </mxCell>
      </root>
    </mxGraphModel>
  </diagram>
  <diagram id="_2HnFGMPuh50FqZT66Lp" name="Notification">
    <mxGraphModel dx="1422" dy="794" grid="1" gridSize="10" guides="1" tooltips="1" connect="1" arrows="1" fold="1" page="1" pageScale="1" pageWidth="850" pageHeight="1100" math="0" shadow="0">
      <root>
        <mxCell id="4BSadGf05HlF1egvjniD-0" />
        <mxCell id="4BSadGf05HlF1egvjniD-1" parent="4BSadGf05HlF1egvjniD-0" />
        <mxCell id="HpLGEuDx2wAuehwmV6c_-0" value="&lt;b&gt;&lt;font style=&quot;font-size: 18px&quot;&gt;Collaboration Diagram: Notification&lt;br&gt;&lt;/font&gt;&lt;/b&gt;" style="text;html=1;strokeColor=none;fillColor=none;align=center;verticalAlign=middle;whiteSpace=wrap;rounded=0;" parent="4BSadGf05HlF1egvjniD-1" vertex="1">
          <mxGeometry y="100" width="410" height="20" as="geometry" />
        </mxCell>
        <mxCell id="yu66j0ALA3MaUgjWYnna-0" style="edgeStyle=none;rounded=0;orthogonalLoop=1;jettySize=auto;html=1;exitX=1;exitY=0.3333333333333333;exitDx=0;exitDy=0;exitPerimeter=0;" parent="4BSadGf05HlF1egvjniD-1" source="yu66j0ALA3MaUgjWYnna-1" target="yu66j0ALA3MaUgjWYnna-3" edge="1">
          <mxGeometry relative="1" as="geometry" />
        </mxCell>
        <mxCell id="yu66j0ALA3MaUgjWYnna-1" value="User" style="shape=umlActor;verticalLabelPosition=bottom;verticalAlign=top;html=1;" parent="4BSadGf05HlF1egvjniD-1" vertex="1">
          <mxGeometry x="80" y="170" width="30" height="60" as="geometry" />
        </mxCell>
        <mxCell id="yu66j0ALA3MaUgjWYnna-2" style="edgeStyle=orthogonalEdgeStyle;rounded=0;orthogonalLoop=1;jettySize=auto;html=1;" parent="4BSadGf05HlF1egvjniD-1" source="yu66j0ALA3MaUgjWYnna-3" target="yu66j0ALA3MaUgjWYnna-6" edge="1">
          <mxGeometry relative="1" as="geometry" />
        </mxCell>
        <mxCell id="yu66j0ALA3MaUgjWYnna-3" value="Notification Pop up" style="shape=umlBoundary;whiteSpace=wrap;html=1;" parent="4BSadGf05HlF1egvjniD-1" vertex="1">
          <mxGeometry x="210" y="150" width="100" height="80" as="geometry" />
        </mxCell>
        <mxCell id="yu66j0ALA3MaUgjWYnna-4" style="rounded=0;orthogonalLoop=1;jettySize=auto;html=1;" parent="4BSadGf05HlF1egvjniD-1" source="yu66j0ALA3MaUgjWYnna-6" target="yu66j0ALA3MaUgjWYnna-9" edge="1">
          <mxGeometry relative="1" as="geometry" />
        </mxCell>
        <mxCell id="yu66j0ALA3MaUgjWYnna-5" style="edgeStyle=orthogonalEdgeStyle;rounded=0;orthogonalLoop=1;jettySize=auto;html=1;entryX=-0.013;entryY=0.501;entryDx=0;entryDy=0;entryPerimeter=0;" parent="4BSadGf05HlF1egvjniD-1" source="yu66j0ALA3MaUgjWYnna-6" target="yu66j0ALA3MaUgjWYnna-10" edge="1">
          <mxGeometry relative="1" as="geometry" />
        </mxCell>
        <mxCell id="yu66j0ALA3MaUgjWYnna-6" value="Notification&lt;br&gt;Control" style="ellipse;shape=umlControl;whiteSpace=wrap;html=1;" parent="4BSadGf05HlF1egvjniD-1" vertex="1">
          <mxGeometry x="400" y="150" width="70" height="80" as="geometry" />
        </mxCell>
        <mxCell id="yu66j0ALA3MaUgjWYnna-7" style="edgeStyle=none;rounded=0;orthogonalLoop=1;jettySize=auto;html=1;entryX=0.709;entryY=0.025;entryDx=0;entryDy=0;entryPerimeter=0;" parent="4BSadGf05HlF1egvjniD-1" source="yu66j0ALA3MaUgjWYnna-9" target="yu66j0ALA3MaUgjWYnna-11" edge="1">
          <mxGeometry relative="1" as="geometry" />
        </mxCell>
        <mxCell id="yu66j0ALA3MaUgjWYnna-8" style="edgeStyle=none;rounded=0;orthogonalLoop=1;jettySize=auto;html=1;entryX=0.5;entryY=0;entryDx=0;entryDy=0;" parent="4BSadGf05HlF1egvjniD-1" source="yu66j0ALA3MaUgjWYnna-9" target="yu66j0ALA3MaUgjWYnna-12" edge="1">
          <mxGeometry relative="1" as="geometry" />
        </mxCell>
        <mxCell id="yu66j0ALA3MaUgjWYnna-14" style="edgeStyle=none;rounded=0;orthogonalLoop=1;jettySize=auto;html=1;" parent="4BSadGf05HlF1egvjniD-1" source="yu66j0ALA3MaUgjWYnna-9" target="yu66j0ALA3MaUgjWYnna-13" edge="1">
          <mxGeometry relative="1" as="geometry" />
        </mxCell>
        <mxCell id="yu66j0ALA3MaUgjWYnna-9" value="Notification" style="ellipse;shape=umlEntity;whiteSpace=wrap;html=1;" parent="4BSadGf05HlF1egvjniD-1" vertex="1">
          <mxGeometry x="395" y="290" width="80" height="80" as="geometry" />
        </mxCell>
        <mxCell id="yu66j0ALA3MaUgjWYnna-10" value="Detect Posture" style="shape=umlBoundary;whiteSpace=wrap;html=1;" parent="4BSadGf05HlF1egvjniD-1" vertex="1">
          <mxGeometry x="570" y="150" width="100" height="80" as="geometry" />
        </mxCell>
        <mxCell id="yu66j0ALA3MaUgjWYnna-11" value="Incorrect sitting" style="ellipse;shape=umlEntity;whiteSpace=wrap;html=1;" parent="4BSadGf05HlF1egvjniD-1" vertex="1">
          <mxGeometry x="250" y="420" width="80" height="80" as="geometry" />
        </mxCell>
        <mxCell id="yu66j0ALA3MaUgjWYnna-12" value="Rest your eyes" style="ellipse;shape=umlEntity;whiteSpace=wrap;html=1;" parent="4BSadGf05HlF1egvjniD-1" vertex="1">
          <mxGeometry x="395" y="420" width="80" height="80" as="geometry" />
        </mxCell>
        <mxCell id="yu66j0ALA3MaUgjWYnna-13" value="get up and stretch" style="ellipse;shape=umlEntity;whiteSpace=wrap;html=1;" parent="4BSadGf05HlF1egvjniD-1" vertex="1">
          <mxGeometry x="560" y="420" width="80" height="80" as="geometry" />
        </mxCell>
      </root>
    </mxGraphModel>
  </diagram>
</mxfile>
